<svg version="1.1" xmlns="http://www.w3.org/2000/svg" style="display: block;" viewBox="0 0 2048 2048" width="1254" height="1254" preserveAspectRatio="none">
<defs>
	<linearGradient id="Gradient1" gradientUnits="userSpaceOnUse" x1="785.18" y1="1283.72" x2="934.754" y2="1070.11">
		<stop class="stop0" offset="0" stop-opacity="1" stop-color="rgb(0,40,200)"/>
		<stop class="stop1" offset="1" stop-opacity="1" stop-color="rgb(0,73,253)"/>
	</linearGradient>
	<linearGradient id="Gradient2" gradientUnits="userSpaceOnUse" x1="1206.56" y1="1534.98" x2="1512.38" y2="1198.61">
		<stop class="stop0" offset="0" stop-opacity="1" stop-color="rgb(0,53,231)"/>
		<stop class="stop1" offset="1" stop-opacity="0.988235" stop-color="rgb(0,131,255)"/>
	</linearGradient>
	<linearGradient id="Gradient3" gradientUnits="userSpaceOnUse" x1="968.375" y1="824.067" x2="1358.28" y2="412.653">
		<stop class="stop0" offset="0" stop-opacity="1" stop-color="rgb(0,124,255)"/>
		<stop class="stop1" offset="1" stop-opacity="1" stop-color="rgb(0,185,253)"/>
	</linearGradient>
	<linearGradient id="Gradient4" gradientUnits="userSpaceOnUse" x1="1007.18" y1="575.777" x2="1004.4" y2="610.926">
		<stop class="stop0" offset="0" stop-opacity="1" stop-color="rgb(27,143,251)"/>
		<stop class="stop1" offset="1" stop-opacity="1" stop-color="rgb(97,198,255)"/>
	</linearGradient>
	<linearGradient id="Gradient5" gradientUnits="userSpaceOnUse" x1="744.828" y1="1134.63" x2="952.888" y2="909.273">
		<stop class="stop0" offset="0" stop-opacity="1" stop-color="rgb(0,44,225)"/>
		<stop class="stop1" offset="1" stop-opacity="1" stop-color="rgb(0,101,255)"/>
	</linearGradient>
	<linearGradient id="Gradient6" gradientUnits="userSpaceOnUse" x1="1198.38" y1="1119.44" x2="1207.69" y2="958.567">
		<stop class="stop0" offset="0" stop-opacity="1" stop-color="rgb(160,203,253)"/>
		<stop class="stop1" offset="1" stop-opacity="1" stop-color="rgb(62,238,253)"/>
	</linearGradient>
	<linearGradient id="Gradient7" gradientUnits="userSpaceOnUse" x1="1042.09" y1="1128.82" x2="1267.6" y2="915.948">
		<stop class="stop0" offset="0" stop-opacity="1" stop-color="rgb(0,76,253)"/>
		<stop class="stop1" offset="1" stop-opacity="1" stop-color="rgb(0,155,255)"/>
	</linearGradient>
	<linearGradient id="Gradient8" gradientUnits="userSpaceOnUse" x1="1039.7" y1="960.719" x2="1239.77" y2="760.764">
		<stop class="stop0" offset="0" stop-opacity="1" stop-color="rgb(0,112,254)"/>
		<stop class="stop1" offset="1" stop-opacity="1" stop-color="rgb(0,180,253)"/>
	</linearGradient>
	<linearGradient id="Gradient9" gradientUnits="userSpaceOnUse" x1="722.457" y1="1026.19" x2="982.384" y2="730.768">
		<stop class="stop0" offset="0" stop-opacity="1" stop-color="rgb(0,55,247)"/>
		<stop class="stop1" offset="1" stop-opacity="1" stop-color="rgb(0,139,255)"/>
	</linearGradient>
	<linearGradient id="Gradient10" gradientUnits="userSpaceOnUse" x1="596.671" y1="1542.08" x2="1096.2" y2="772.651">
		<stop class="stop0" offset="0" stop-opacity="1" stop-color="rgb(0,55,208)"/>
		<stop class="stop1" offset="1" stop-opacity="1" stop-color="rgb(0,127,255)"/>
	</linearGradient>
</defs>
<path transform="translate(0,0)" fill="url(#Gradient10)" d="M 596.241 463.744 C 603.355 463.125 604.144 458.432 609.49 457.53 C 607.987 463.872 601.408 467.67 599.323 473.681 C 596.92 472.283 617.621 478.27 619.142 478.81 C 632.011 483.381 631.767 482.086 637.368 494.463 L 643.233 494.574 C 645.556 497.25 649.929 506.263 651.582 507.311 C 664.913 515.759 676.971 525.186 689.442 534.805 C 693.474 537.914 701.903 539.659 706.427 542.639 C 711.949 546.023 717.522 551.359 723.432 554.067 C 727.395 553.613 731.759 552.53 735.157 553.783 L 734.708 555.304 C 730.172 557.74 731.584 556.243 729.108 560.685 C 727.664 562.244 714.719 571.077 712.025 572.913 C 700.565 580.725 690.853 587.724 680.137 596.587 C 623.534 643.409 579.495 696.691 545.189 761.886 C 479.191 885.15 465.643 1029.81 507.604 1163.18 C 550.281 1299.16 645.253 1412.6 771.607 1478.53 C 898.403 1545.11 1037.66 1555.42 1173.79 1512.98 C 1186.71 1524.74 1202.19 1540.94 1214.84 1553.48 C 1239.61 1577.91 1264.23 1602.49 1288.69 1627.22 C 1175.62 1684.01 1030.38 1701 906.498 1680.18 C 718.023 1648.84 557.041 1537.14 449.804 1381.35 C 271.373 1122.14 307.345 759.075 521.669 531.985 C 542.652 509.752 570.971 481.271 596.241 463.744 z"/>
<path transform="translate(0,0)" fill="rgb(0,146,253)" d="M 700.351 547.902 C 704.884 550.541 706.697 548.48 712.4 550.681 C 714.627 553.96 714.12 552.444 713.423 557.236 C 712.95 558.736 713.366 557.993 711.933 559.308 C 706.448 555.751 702.266 553.809 700.351 547.902 z"/>
<path transform="translate(0,0)" fill="url(#Gradient9)" d="M 999.11 630.348 C 999.155 626.466 999.645 622.834 997.814 619.501 C 989.691 613.532 984.354 611.252 982.946 600.635 C 982.03 593.89 984.013 587.072 988.404 581.87 C 1010.57 555.775 1053.44 599.103 1011.03 620.783 L 1010.88 633.105 C 1011.03 643.079 1011.26 653.01 1010.96 662.983 C 1183.59 662.422 1337.6 812.601 1347.53 983.829 C 1404.02 1004.3 1410.27 1042.5 1350.81 1065.14 C 1349.05 1065.8 1347.27 1066.39 1345.46 1066.9 C 1311.42 1079.55 1280.02 1087.38 1244 1093 C 1231.24 1094.99 1217.72 1097.69 1204.82 1098.29 C 1206.51 1104.77 1207.1 1108.6 1200.04 1111.45 C 1193.07 1109.84 1193.55 1105.86 1194.52 1099.77 C 1184.93 1101.8 1166.4 1103.07 1155.74 1104.04 C 1125.35 1106.88 1094.89 1108.89 1064.39 1110.06 C 1057.37 1110.33 1013.85 1110.74 1010.2 1112.11 L 1009.44 1112.94 C 1008.14 1110.69 1009.17 1104.35 1009.84 1101.83 C 1008.59 1093.51 1009.2 1090.36 1009.26 1082.18 L 1007.76 1081.03 C 1003.46 1082.27 1004 1081.43 1001.38 1084.25 C 1000.04 1089.28 1001.07 1095.84 1001.51 1101.22 C 1001.08 1117.46 1000.93 1133.71 1001.06 1149.96 C 998.7 1147.17 1000.88 1120.38 999.386 1112.46 C 994.583 1110.83 962.54 1111.54 955.009 1111.21 C 904.153 1108.97 848.993 1108.43 798.814 1100.72 C 802.781 1099.73 825.171 1101.77 831.285 1102.22 C 830.329 1101.6 830.644 1101.51 830.08 1099.96 C 830.832 1098.6 831.592 1097.24 832.385 1095.89 C 823.934 1092.09 803.909 1094.07 798.63 1089.89 C 795.331 1088.51 763.535 1085.16 756.982 1084.05 C 724.807 1078.59 690.683 1072.38 660.054 1060.74 C 656.835 1037.4 656.769 1013.98 658.034 990.501 C 641.153 996.486 622.173 1004.48 611.489 1018.88 C 611.236 1019.09 610.983 1019.3 610.73 1019.51 C 612.333 1005.37 636.218 997.653 647.277 992.475 C 646.89 992.656 659.915 985.367 658.721 986.442 C 659.64 983.206 659.901 983.311 658.863 980.196 L 656.913 979.265 C 641.304 983.005 619.172 994.008 606.598 1004.46 C 602.019 1008.27 599.197 1015.12 593.769 1019.32 C 599.534 997.703 640.409 981.119 659.985 976.034 C 658.134 937.758 683.398 872.562 702.803 838.962 C 752.407 753.072 824.508 699.042 919.346 673.214 C 947.209 666.47 970.42 663.023 999.168 662.974 C 998.712 653.535 999.095 640.08 999.11 630.348 z M 1349.2 999.068 C 1347.96 1004.94 1348.92 1018.88 1348.71 1025.69 C 1348.46 1033.78 1347.65 1043.65 1347.76 1051.58 C 1383.4 1033.99 1385.24 1018.49 1349.2 999.068 z"/>
<path transform="translate(0,0)" fill="url(#Gradient8)" d="M 1010.96 662.983 C 1183.59 662.422 1337.6 812.601 1347.53 983.829 C 1404.02 1004.3 1410.27 1042.5 1350.81 1065.14 C 1349.05 1065.8 1347.27 1066.39 1345.46 1066.9 C 1311.42 1079.55 1280.02 1087.38 1244 1093 C 1231.24 1094.99 1217.72 1097.69 1204.82 1098.29 C 1206.51 1104.77 1207.1 1108.6 1200.04 1111.45 C 1193.07 1109.84 1193.55 1105.86 1194.52 1099.77 C 1184.93 1101.8 1166.4 1103.07 1155.74 1104.04 C 1125.35 1106.88 1094.89 1108.89 1064.39 1110.06 C 1057.37 1110.33 1013.85 1110.74 1010.2 1112.11 L 1009.44 1112.94 C 1008.14 1110.69 1009.17 1104.35 1009.84 1101.83 L 1010.41 1100.99 C 1011.59 1094.18 1011.11 1061.9 1011.11 1052.89 L 1011.17 947.983 L 1011.06 936.982 L 1010.73 754.45 C 1010.67 731.485 1009.1 684.375 1010.96 662.983 z M 1349.2 999.068 C 1347.96 1004.94 1348.92 1018.88 1348.71 1025.69 C 1348.46 1033.78 1347.65 1043.65 1347.76 1051.58 C 1383.4 1033.99 1385.24 1018.49 1349.2 999.068 z"/>
<path transform="translate(0,0)" fill="url(#Gradient7)" d="M 1011.17 947.983 C 1071.03 948.756 1146.83 952.972 1206.13 961.844 C 1232.41 965.38 1258.34 971.33 1284.34 976.317 C 1278.41 970.791 1265.58 973.346 1262.06 967.84 C 1262.88 966.064 1263.73 964.3 1264.61 962.55 C 1269.11 963.238 1279.68 965.982 1283.03 964.703 C 1304.75 967.952 1326.94 976.995 1347.53 983.829 C 1404.02 1004.3 1410.27 1042.5 1350.81 1065.14 C 1349.05 1065.8 1347.27 1066.39 1345.46 1066.9 C 1311.42 1079.55 1280.02 1087.38 1244 1093 C 1231.24 1094.99 1217.72 1097.69 1204.82 1098.29 C 1206.51 1104.77 1207.1 1108.6 1200.04 1111.45 C 1193.07 1109.84 1193.55 1105.86 1194.52 1099.77 C 1184.93 1101.8 1166.4 1103.07 1155.74 1104.04 C 1125.35 1106.88 1094.89 1108.89 1064.39 1110.06 C 1057.37 1110.33 1013.85 1110.74 1010.2 1112.11 L 1009.44 1112.94 C 1008.14 1110.69 1009.17 1104.35 1009.84 1101.83 L 1010.41 1100.99 C 1011.59 1094.18 1011.11 1061.9 1011.11 1052.89 L 1011.17 947.983 z M 1349.2 999.068 C 1347.96 1004.94 1348.92 1018.88 1348.71 1025.69 C 1348.46 1033.78 1347.65 1043.65 1347.76 1051.58 C 1383.4 1033.99 1385.24 1018.49 1349.2 999.068 z"/>
<path transform="translate(0,0)" fill="url(#Gradient6)" d="M 1264.61 962.55 C 1269.11 963.238 1279.68 965.982 1283.03 964.703 C 1304.75 967.952 1326.94 976.995 1347.53 983.829 C 1404.02 1004.3 1410.27 1042.5 1350.81 1065.14 C 1349.05 1065.8 1347.27 1066.39 1345.46 1066.9 C 1311.42 1079.55 1280.02 1087.38 1244 1093 C 1231.24 1094.99 1217.72 1097.69 1204.82 1098.29 C 1206.51 1104.77 1207.1 1108.6 1200.04 1111.45 C 1193.07 1109.84 1193.55 1105.86 1194.52 1099.77 C 1184.93 1101.8 1166.4 1103.07 1155.74 1104.04 C 1125.35 1106.88 1094.89 1108.89 1064.39 1110.06 C 1057.37 1110.33 1013.85 1110.74 1010.2 1112.11 L 1009.44 1112.94 C 1008.14 1110.69 1009.17 1104.35 1009.84 1101.83 L 1010.41 1100.99 C 1017.7 1099.71 1030.5 1099.85 1038.23 1099.66 C 1053.25 1099.3 1068.26 1098.74 1083.26 1098 C 1158.39 1094.12 1240.51 1087.1 1312.58 1065.61 C 1322.11 1062.77 1339.91 1056.89 1347.76 1051.58 C 1383.4 1033.99 1385.24 1018.49 1349.2 999.068 C 1344.81 993.069 1293.81 979.228 1284.34 976.317 C 1278.41 970.791 1265.58 973.346 1262.06 967.84 C 1262.88 966.064 1263.73 964.3 1264.61 962.55 z"/>
<path transform="translate(0,0)" fill="rgb(25,217,251)" d="M 1194.52 1099.77 C 1197.69 1098.95 1201.52 1098.67 1204.82 1098.29 C 1206.51 1104.77 1207.1 1108.6 1200.04 1111.45 C 1193.07 1109.84 1193.55 1105.86 1194.52 1099.77 z"/>
<path transform="translate(0,0)" fill="rgb(73,244,253)" d="M 1205.53 971.539 L 1209.46 972.322 C 1214.8 976.79 1215.32 988.317 1212.14 994.55 C 1211.39 994.499 1210.63 994.448 1209.87 994.397 C 1201.19 994.695 1202.97 977.357 1205.53 971.539 z"/>
<path transform="translate(0,0)" fill="rgb(73,244,253)" d="M 1208.31 1005.62 C 1212 1004.81 1215.66 1007.12 1216.53 1010.8 C 1217.4 1014.48 1215.16 1018.17 1211.49 1019.11 C 1209.06 1019.73 1206.49 1018.99 1204.76 1017.17 C 1203.03 1015.36 1202.42 1012.75 1203.15 1010.36 C 1203.89 1007.96 1205.86 1006.15 1208.31 1005.62 z"/>
<path transform="translate(0,0)" fill="rgb(73,244,253)" d="M 1204.99 1051.64 C 1207.45 1051.99 1207.63 1052.13 1210.03 1052.89 C 1214.88 1058.22 1213.7 1061.51 1209.66 1066.81 C 1206.96 1066.73 1206.65 1066.47 1204.05 1065.61 C 1199.56 1060.59 1201.46 1056.54 1204.99 1051.64 z"/>
<path transform="translate(0,0)" fill="rgb(73,244,253)" d="M 1206.41 1030.46 C 1209.41 1028.92 1213.1 1030.06 1214.71 1033.03 C 1216.33 1036 1215.28 1039.71 1212.35 1041.4 C 1210.39 1042.53 1207.97 1042.5 1206.04 1041.34 C 1204.1 1040.17 1202.95 1038.05 1203.02 1035.79 C 1203.1 1033.53 1204.39 1031.49 1206.41 1030.46 z"/>
<path transform="translate(0,0)" fill="rgb(25,217,251)" d="M 1201.68 1074.43 C 1203.47 1073.56 1205.59 1073.73 1207.21 1074.88 C 1208.83 1076.03 1209.7 1077.98 1209.46 1079.95 C 1209.22 1081.93 1207.93 1083.61 1206.08 1084.35 C 1203.37 1085.43 1200.29 1084.17 1199.11 1081.51 C 1197.92 1078.84 1199.06 1075.71 1201.68 1074.43 z"/>
<path transform="translate(0,0)" fill="rgb(25,217,251)" d="M 1011.06 936.982 C 1059.61 936.378 1109.44 940.853 1157.83 944.753 C 1163.2 945.186 1196.61 949.233 1198.99 948.358 C 1199.73 954.007 1199.58 955.873 1203.29 960.109 L 1206.13 961.844 C 1146.83 952.972 1071.03 948.756 1011.17 947.983 L 1011.06 936.982 z"/>
<path transform="translate(0,0)" fill="rgb(25,217,251)" d="M 1210.96 949.67 C 1215.92 955.39 1270.23 957.695 1283.03 964.703 C 1279.68 965.982 1269.11 963.238 1264.61 962.55 C 1263.73 964.3 1262.88 966.064 1262.06 967.84 C 1265.58 973.346 1278.41 970.791 1284.34 976.317 C 1258.34 971.33 1232.41 965.38 1206.13 961.844 L 1203.29 960.109 C 1208.89 956.827 1209.17 955.866 1210.96 949.67 z"/>
<path transform="translate(0,0)" fill="rgb(73,244,253)" d="M 1198.99 948.358 C 1201.49 945.696 1201.38 945.378 1205.05 944.686 C 1208.51 945.861 1208.54 945.808 1210.96 949.67 C 1209.17 955.866 1208.89 956.827 1203.29 960.109 C 1199.58 955.873 1199.73 954.007 1198.99 948.358 z"/>
<path transform="translate(0,0)" fill="rgb(73,244,253)" d="M 1170.38 835.285 C 1178.38 838.842 1182.15 846.131 1176.25 853.772 C 1166.09 852.046 1163.62 843.259 1170.38 835.285 z"/>
<path transform="translate(0,0)" fill="rgb(73,244,253)" d="M 1180.18 863.333 C 1189.72 863.589 1191.5 872.204 1186.17 879.315 C 1176.36 878.072 1175.36 870.671 1180.18 863.333 z"/>
<path transform="translate(0,0)" fill="rgb(73,244,253)" d="M 1198.78 920.897 C 1200.98 921.4 1201.45 921.687 1203.57 922.539 C 1208.52 927.795 1207.54 931.342 1203.38 936.543 C 1194.17 934.315 1191.74 927.59 1198.78 920.897 z"/>
<path transform="translate(0,0)" fill="rgb(73,244,253)" d="M 1035.65 672.591 C 1040.12 674.326 1042.89 675.212 1044.6 679.976 C 1044.02 684.261 1044.22 682.922 1041.36 686.8 C 1036.05 685.044 1033.98 684.918 1031.86 679.572 C 1032.33 675.703 1032.99 675.386 1035.65 672.591 z"/>
<path transform="translate(0,0)" fill="rgb(73,244,253)" d="M 1134.5 775.421 C 1135.75 775.564 1138.33 775.868 1139.44 776.275 C 1141.73 777.135 1143.48 779.043 1144.14 781.408 C 1144.92 784.264 1143.19 787.052 1141.88 789.499 C 1132.71 788.308 1131.19 782.907 1134.5 775.421 z"/>
<path transform="translate(0,0)" fill="rgb(73,244,253)" d="M 1075.94 705.338 C 1080.09 706.584 1083.33 708.019 1085.37 712.046 C 1085.61 716.666 1085.65 715.084 1083.21 719.68 C 1078.72 718.657 1075.41 716.515 1073.51 712.307 C 1073.39 708.004 1073.25 709.532 1075.94 705.338 z"/>
<path transform="translate(0,0)" fill="rgb(73,244,253)" d="M 1094.8 723.514 C 1098.98 725.199 1101.85 726.644 1103.26 731.192 C 1103.23 734.884 1102.22 735.616 1099.97 738.562 C 1096.29 736.876 1093.07 734.566 1091.62 730.722 C 1091.98 726.185 1091.76 727.695 1094.8 723.514 z"/>
<path transform="translate(0,0)" fill="rgb(73,244,253)" d="M 1188.73 886.376 C 1197.83 888.548 1198.67 895.138 1192.37 901.336 C 1184.27 897.754 1183.87 893.3 1188.73 886.376 z"/>
<path transform="translate(0,0)" fill="rgb(73,244,253)" d="M 1158.11 813.319 C 1162.17 814.763 1164.39 816.035 1166.24 820 C 1166.25 824.887 1166.46 823.134 1163.81 827.764 C 1154.89 825.406 1153.48 821.069 1158.11 813.319 z"/>
<path transform="translate(0,0)" fill="rgb(73,244,253)" d="M 1054.99 688.296 C 1060.04 688.799 1061.99 689.439 1064.26 694.094 C 1064.33 697.888 1063.66 698.329 1061.44 701.375 C 1057.81 700.111 1054.87 698.873 1052.97 695.467 C 1052.6 691.224 1052.63 692.652 1054.99 688.296 z"/>
<path transform="translate(0,0)" fill="rgb(73,244,253)" d="M 1147.38 795.497 C 1151.49 795.685 1153.24 796.314 1155.74 799.636 C 1156.71 804.753 1156.63 802.825 1154.67 808.162 C 1146.19 807.836 1143.97 803.006 1147.38 795.497 z"/>
<path transform="translate(0,0)" fill="rgb(73,244,253)" d="M 1120.85 755.393 C 1129.67 756.813 1131.05 761.108 1127.97 768.819 C 1123.58 768.295 1121.86 767.337 1119.47 763.646 C 1118.82 758.662 1118.86 760.459 1120.85 755.393 z"/>
<path transform="translate(0,0)" fill="rgb(73,244,253)" d="M 1195.54 905.025 C 1198.2 904.757 1200.63 906.579 1201.11 909.213 C 1201.59 911.848 1199.98 914.413 1197.39 915.11 C 1195.52 915.613 1193.52 915.023 1192.23 913.582 C 1190.93 912.142 1190.56 910.095 1191.25 908.288 C 1191.95 906.481 1193.61 905.22 1195.54 905.025 z"/>
<path transform="translate(0,0)" fill="rgb(73,244,253)" d="M 1110.77 740.727 C 1113.57 742.862 1114.64 743.363 1116.33 746.51 C 1115.74 750.58 1115.87 749.357 1112.78 753.008 C 1109.98 750.84 1107.7 749.64 1106.54 746.391 C 1107.69 742.56 1107.3 743.771 1110.77 740.727 z"/>
<path transform="translate(0,0)" fill="url(#Gradient5)" d="M 999.11 630.348 C 999.155 626.466 999.645 622.834 997.814 619.501 C 989.691 613.532 984.354 611.252 982.946 600.635 C 982.03 593.89 984.013 587.072 988.404 581.87 C 1010.57 555.775 1053.44 599.103 1011.03 620.783 L 1010.88 633.105 C 1011.03 643.079 1011.26 653.01 1010.96 662.983 C 1009.1 684.375 1010.67 731.485 1010.73 754.45 L 1011.06 936.982 L 1011.17 947.983 L 1011.11 1052.89 C 1011.11 1061.9 1011.59 1094.18 1010.41 1100.99 L 1009.84 1101.83 C 1008.59 1093.51 1009.2 1090.36 1009.26 1082.18 L 1007.76 1081.03 C 1003.46 1082.27 1004 1081.43 1001.38 1084.25 C 1000.04 1089.28 1001.07 1095.84 1001.51 1101.22 C 1001.08 1117.46 1000.93 1133.71 1001.06 1149.96 C 998.7 1147.17 1000.88 1120.38 999.386 1112.46 C 994.583 1110.83 962.54 1111.54 955.009 1111.21 C 904.153 1108.97 848.993 1108.43 798.814 1100.72 C 802.781 1099.73 825.171 1101.77 831.285 1102.22 C 830.329 1101.6 830.644 1101.51 830.08 1099.96 C 830.832 1098.6 831.592 1097.24 832.385 1095.89 C 823.934 1092.09 803.909 1094.07 798.63 1089.89 C 795.331 1088.51 763.535 1085.16 756.982 1084.05 C 724.807 1078.59 690.683 1072.38 660.054 1060.74 C 656.835 1037.4 656.769 1013.98 658.034 990.501 C 641.153 996.486 622.173 1004.48 611.489 1018.88 C 611.236 1019.09 610.983 1019.3 610.73 1019.51 C 612.333 1005.37 636.218 997.653 647.277 992.475 C 646.89 992.656 659.915 985.367 658.721 986.442 C 659.64 983.206 659.901 983.311 658.863 980.196 L 656.913 979.265 C 641.304 983.005 619.172 994.008 606.598 1004.46 C 602.019 1008.27 599.197 1015.12 593.769 1019.32 C 599.534 997.703 640.409 981.119 659.985 976.034 C 769.082 945.539 885.969 936.335 999.039 936.793 C 998.443 879.73 1000.16 821.464 998.93 764.624 C 999.682 756.898 999.243 738.746 999.273 730.388 C 999.432 707.917 999.397 685.444 999.168 662.974 C 998.712 653.535 999.095 640.08 999.11 630.348 z"/>
<path transform="translate(0,0)" fill="rgb(152,213,252)" d="M 999.11 630.348 C 999.155 626.466 999.645 622.834 997.814 619.501 C 989.691 613.532 984.354 611.252 982.946 600.635 C 982.03 593.89 984.013 587.072 988.404 581.87 C 1010.57 555.775 1053.44 599.103 1011.03 620.783 L 1010.88 633.105 C 1011.03 643.079 1011.26 653.01 1010.96 662.983 C 1009.1 684.375 1010.67 731.485 1010.73 754.45 L 1011.06 936.982 L 1011.17 947.983 L 1011.11 1052.89 C 1011.11 1061.9 1011.59 1094.18 1010.41 1100.99 L 1009.84 1101.83 C 1008.59 1093.51 1009.2 1090.36 1009.26 1082.18 L 1007.76 1081.03 C 1003.46 1082.27 1004 1081.43 1001.38 1084.25 C 1000.04 1089.28 1001.07 1095.84 1001.51 1101.22 C 1001.08 1117.46 1000.93 1133.71 1001.06 1149.96 C 998.7 1147.17 1000.88 1120.38 999.386 1112.46 C 994.583 1110.83 962.54 1111.54 955.009 1111.21 C 904.153 1108.97 848.993 1108.43 798.814 1100.72 C 802.781 1099.73 825.171 1101.77 831.285 1102.22 C 830.329 1101.6 830.644 1101.51 830.08 1099.96 C 830.832 1098.6 831.592 1097.24 832.385 1095.89 C 823.934 1092.09 803.909 1094.07 798.63 1089.89 C 843.719 1094.01 883.756 1097.61 929.269 1099.35 C 943.567 1099.86 957.874 1100.08 972.181 1100 C 977.939 1100.01 994.151 1099.76 999.127 1100.81 C 997.668 1052.6 998.883 996.84 999.003 948.063 L 999.039 936.793 C 998.443 879.73 1000.16 821.464 998.93 764.624 C 999.682 756.898 999.243 738.746 999.273 730.388 C 999.432 707.917 999.397 685.444 999.168 662.974 C 998.712 653.535 999.095 640.08 999.11 630.348 z"/>
<path transform="translate(0,0)" fill="url(#Gradient4)" d="M 999.11 630.348 C 999.155 626.466 999.645 622.834 997.814 619.501 C 989.691 613.532 984.354 611.252 982.946 600.635 C 982.03 593.89 984.013 587.072 988.404 581.87 C 1010.57 555.775 1053.44 599.103 1011.03 620.783 L 1010.88 633.105 L 1009.36 632.483 L 1008.57 630.027 C 1009.44 626.342 1009.28 618.843 1009.61 618.496 C 1011.67 616.354 1016.41 616.719 1018.29 613.085 C 1012.19 607.094 998.663 606.786 991.026 609.572 C 992.236 617.239 1003.63 613.871 1000.74 631.678 L 999.11 630.348 z"/>
<path transform="translate(0,0)" fill="rgb(24,188,254)" d="M 999.039 936.793 L 999.003 948.063 C 897.498 947.7 784.214 954.987 685.6 981.118 C 680.98 982.342 661.041 987.783 658.034 990.501 C 641.153 996.486 622.173 1004.48 611.489 1018.88 C 611.236 1019.09 610.983 1019.3 610.73 1019.51 C 612.333 1005.37 636.218 997.653 647.277 992.475 C 646.89 992.656 659.915 985.367 658.721 986.442 C 659.64 983.206 659.901 983.311 658.863 980.196 L 656.913 979.265 C 641.304 983.005 619.172 994.008 606.598 1004.46 C 602.019 1008.27 599.197 1015.12 593.769 1019.32 C 599.534 997.703 640.409 981.119 659.985 976.034 C 769.082 945.539 885.969 936.335 999.039 936.793 z"/>
<path transform="translate(0,0)" fill="rgb(0,146,253)" d="M 919.346 673.214 C 947.209 666.47 970.42 663.023 999.168 662.974 C 999.397 685.444 999.432 707.917 999.273 730.388 C 999.243 738.746 999.682 756.898 998.93 764.624 L 998.049 763.799 C 996.635 753.588 986.22 755.628 981.02 749.264 C 972.5 738.838 963.059 729.061 954.519 718.744 C 947.131 709.819 942.704 701.551 931.836 696.034 C 926.184 692.873 920.314 679.289 919.346 673.214 z"/>
<path transform="translate(0,0)" fill="url(#Gradient3)" d="M 596.241 463.744 C 724.802 357.052 901.661 308.274 1067.18 323.622 C 1240.84 341.444 1400.54 426.822 1511.81 561.335 C 1588.03 653.303 1627.19 737.127 1656 851.645 L 1519.62 924.413 C 1510.23 891.305 1507.03 868.104 1494.57 833.658 C 1450.79 710.549 1363.83 607.506 1249.83 543.659 C 1133.35 478.588 995.82 462.358 867.391 498.529 C 812.495 514.196 777.231 531.946 729.108 560.685 C 731.584 556.243 730.172 557.74 734.708 555.304 L 735.157 553.783 C 731.759 552.53 727.395 553.613 723.432 554.067 C 717.522 551.359 711.949 546.023 706.427 542.639 C 701.903 539.659 693.474 537.914 689.442 534.805 C 676.971 525.186 664.913 515.759 651.582 507.311 C 649.929 506.263 645.556 497.25 643.233 494.574 L 637.368 494.463 C 631.767 482.086 632.011 483.381 619.142 478.81 C 617.621 478.27 596.92 472.283 599.323 473.681 C 601.408 467.67 607.987 463.872 609.49 457.53 C 604.144 458.432 603.355 463.125 596.241 463.744 z"/>
<path transform="translate(0,0)" fill="url(#Gradient2)" d="M 1204.82 1098.29 C 1217.72 1097.69 1231.24 1094.99 1244 1093 C 1280.02 1087.38 1311.42 1079.55 1345.46 1066.9 C 1333.22 1143.73 1296.02 1214.4 1239.62 1267.98 C 1280.63 1308.76 1323.98 1353.13 1366.04 1392.65 C 1377.01 1381.36 1395.77 1362.6 1405.56 1350.92 C 1430.1 1321.64 1468.25 1268.86 1482.63 1233.24 C 1510.3 1245.22 1538.04 1257.05 1565.85 1268.71 C 1582.18 1275.61 1602.41 1283.45 1618.17 1290.96 C 1614.47 1301.69 1605.05 1319.16 1599.46 1329.34 C 1573.38 1377.69 1541.41 1422.63 1504.28 1463.12 C 1495.66 1472.64 1479.8 1489.5 1470.1 1497.62 L 1589.54 1617.54 C 1609.4 1637.52 1635.69 1665.34 1655.96 1683.88 C 1592.55 1684.47 1522.88 1685.26 1459.68 1684.06 C 1424.99 1651.78 1387.54 1612.76 1353.91 1578.99 L 1232.23 1457.73 L 1155.72 1381.79 C 1145.74 1371.88 1126.84 1354.06 1118.17 1343.75 C 1084.93 1355.19 1046.44 1362.32 1011.2 1362.05 L 1010.99 1186.79 C 1010.99 1173.5 1012.13 1122.18 1010.2 1112.11 C 1013.85 1110.74 1057.37 1110.33 1064.39 1110.06 C 1094.89 1108.89 1125.35 1106.88 1155.74 1104.04 C 1166.4 1103.07 1184.93 1101.8 1194.52 1099.77 C 1193.55 1105.86 1193.07 1109.84 1200.04 1111.45 C 1207.1 1108.6 1206.51 1104.77 1204.82 1098.29 z"/>
<path transform="translate(0,0)" fill="rgb(73,244,253)" d="M 1165.3 1187.71 C 1168.77 1187.6 1168.71 1187.37 1171.82 1188.74 C 1176.34 1194.36 1173.03 1198.12 1169.19 1203.02 C 1166.03 1203.29 1166.2 1203.43 1163.29 1202.27 C 1158.51 1196.81 1161.65 1192.7 1165.3 1187.71 z"/>
<path transform="translate(0,0)" fill="rgb(73,244,253)" d="M 1152.21 1214.47 C 1155.09 1214.86 1154.47 1214.78 1157.24 1215.81 C 1162.23 1221.52 1157.44 1225.56 1153.26 1230.37 C 1150.65 1229.96 1151.07 1229.93 1148.56 1228.84 C 1143.84 1222.98 1147.97 1219.24 1152.21 1214.47 z"/>
<path transform="translate(0,0)" fill="rgb(73,244,253)" d="M 1079.71 1305.57 C 1082.82 1306.01 1081.83 1305.84 1084.79 1307.27 C 1088.97 1313.06 1084.12 1316.56 1079.67 1320.28 C 1074.7 1319.22 1072.84 1318.68 1072.65 1313.71 C 1074.45 1309.43 1076 1308.68 1079.71 1305.57 z"/>
<path transform="translate(0,0)" fill="rgb(73,244,253)" d="M 1038.54 1338.57 C 1049.65 1339.42 1045.59 1347.68 1039.87 1352.75 C 1036.33 1352.47 1036.56 1352.56 1033.48 1350.81 C 1029.69 1344.84 1033.87 1342.22 1038.54 1338.57 z"/>
<path transform="translate(0,0)" fill="rgb(73,244,253)" d="M 1059.45 1323.69 C 1070.93 1325.42 1064.76 1333.94 1059.27 1338.52 C 1054.78 1336.34 1052.92 1335.97 1052.61 1330.71 C 1054.31 1326.76 1055.73 1326.29 1059.45 1323.69 z"/>
<path transform="translate(0,0)" fill="rgb(73,244,253)" d="M 1191.83 1121.39 C 1202.98 1124.54 1199.52 1130.76 1193.72 1137.23 L 1189.59 1135.79 C 1184.63 1130.14 1187.68 1126.53 1191.83 1121.39 z"/>
<path transform="translate(0,0)" fill="rgb(73,244,253)" d="M 1139.4 1236.44 C 1149.32 1240.2 1144.12 1247.04 1139 1251.95 C 1128.48 1246.89 1132.69 1242.44 1139.4 1236.44 z"/>
<path transform="translate(0,0)" fill="rgb(73,244,253)" d="M 1097.73 1287.45 C 1107.39 1293.34 1102.56 1297.44 1095.8 1303.05 C 1091.88 1300.57 1090.98 1300.05 1090.62 1295.65 C 1092.23 1291.66 1094.38 1290.39 1097.73 1287.45 z"/>
<path transform="translate(0,0)" fill="rgb(73,244,253)" d="M 1114.31 1269.65 C 1125.78 1272.06 1119.06 1279.53 1114.22 1284.16 C 1103.99 1280.07 1107.75 1275.2 1114.31 1269.65 z"/>
<path transform="translate(0,0)" fill="rgb(73,244,253)" d="M 1184.44 1144.49 C 1186.3 1144.84 1187.25 1145.28 1189.03 1145.91 C 1193.69 1151.19 1190.82 1154.63 1186.79 1159.15 C 1184.9 1158.76 1183.94 1158.33 1182.13 1157.68 C 1177.36 1152.24 1180.35 1149.34 1184.44 1144.49 z"/>
<path transform="translate(0,0)" fill="rgb(25,217,251)" d="M 1179.2 1162.27 C 1188.18 1166.22 1183.32 1172.31 1179.19 1177.52 C 1170.33 1172.94 1174.02 1167.72 1179.2 1162.27 z"/>
<path transform="translate(0,0)" fill="rgb(25,217,251)" d="M 1128.51 1254.49 C 1132.22 1257.39 1131.09 1255.63 1132.63 1259.52 C 1132.11 1262.96 1130.25 1264.46 1127.95 1267.13 C 1124.16 1264.48 1124.74 1265.69 1123.26 1261.99 C 1123.98 1258.59 1126.05 1257.06 1128.51 1254.49 z"/>
<path transform="translate(0,0)" fill="url(#Gradient1)" d="M 662.392 1074.78 C 699.295 1085.45 736.967 1093.25 775.071 1098.13 C 779.325 1098.7 795.37 1100.94 798.814 1100.72 C 848.993 1108.43 904.153 1108.97 955.009 1111.21 C 962.54 1111.54 994.583 1110.83 999.386 1112.46 C 1000.88 1120.38 998.7 1147.17 1001.06 1149.96 C 1000.93 1133.71 1001.08 1117.46 1001.51 1101.22 C 1001.07 1095.84 1000.04 1089.28 1001.38 1084.25 C 1004 1081.43 1003.46 1082.27 1007.76 1081.03 L 1009.26 1082.18 C 1009.2 1090.36 1008.59 1093.51 1009.84 1101.83 C 1009.17 1104.35 1008.14 1110.69 1009.44 1112.94 L 1010.2 1112.11 C 1012.13 1122.18 1010.99 1173.5 1010.99 1186.79 L 1011.2 1362.05 C 1011.39 1379.1 1011.21 1396.38 1011.17 1413.44 L 1012.86 1414.33 C 1024.56 1420.58 1026.12 1423.95 1029.7 1436.02 C 1025.96 1452.28 1021.37 1456.43 1005.61 1460.24 C 1003.98 1459.88 1002.36 1459.48 1000.74 1459.04 C 993.91 1457.15 988.299 1452.89 985.026 1446.53 C 982.283 1441.1 981.886 1434.78 983.928 1429.04 C 986.841 1421.05 991.963 1417.7 999.107 1414.11 C 998.623 1396.82 998.59 1379.53 999.01 1362.24 C 930.517 1362.17 863.692 1341.1 807.55 1301.87 C 731.089 1248.29 678.91 1166.66 662.392 1074.78 z"/>
<path transform="translate(0,0)" fill="rgb(25,217,251)" d="M 1001.51 1101.22 C 1001.07 1095.84 1000.04 1089.28 1001.38 1084.25 C 1004 1081.43 1003.46 1082.27 1007.76 1081.03 L 1009.26 1082.18 C 1009.2 1090.36 1008.59 1093.51 1009.84 1101.83 C 1009.17 1104.35 1008.14 1110.69 1009.44 1112.94 L 1010.2 1112.11 C 1012.13 1122.18 1010.99 1173.5 1010.99 1186.79 L 1011.2 1362.05 C 1011.39 1379.1 1011.21 1396.38 1011.17 1413.44 L 1012.86 1414.33 C 1024.56 1420.58 1026.12 1423.95 1029.7 1436.02 C 1025.96 1452.28 1021.37 1456.43 1005.61 1460.24 C 1003.98 1459.88 1002.36 1459.48 1000.74 1459.04 C 993.91 1457.15 988.299 1452.89 985.026 1446.53 C 982.283 1441.1 981.886 1434.78 983.928 1429.04 C 986.841 1421.05 991.963 1417.7 999.107 1414.11 C 998.623 1396.82 998.59 1379.53 999.01 1362.24 L 998.977 1199.75 C 998.968 1171.95 998.154 1139.82 999.386 1112.46 C 1000.88 1120.38 998.7 1147.17 1001.06 1149.96 C 1000.93 1133.71 1001.08 1117.46 1001.51 1101.22 z"/>
<path transform="translate(0,0)" fill="rgb(25,217,251)" d="M 1535.14 1024.24 C 1551.91 1024.08 1568.7 1023.89 1585.46 1023.83 C 1592.62 1023.8 1599.56 1023.72 1605.28 1028.52 C 1609.46 1035.93 1605.23 1077.53 1607.07 1089.55 C 1607.76 1094.03 1605.55 1098.17 1602.19 1101.23 C 1593.24 1101.49 1535.56 1102.4 1532.12 1099.22 C 1527.68 1087.18 1530.05 1046.81 1530.16 1031.56 C 1530.18 1027.43 1532.43 1026.24 1535.14 1024.24 z"/>
<path transform="translate(0,0)" fill="rgb(25,217,251)" d="M 593.769 1019.32 C 599.197 1015.12 602.019 1008.27 606.598 1004.46 C 619.172 994.008 641.304 983.005 656.913 979.265 L 658.863 980.196 C 659.901 983.311 659.64 983.206 658.721 986.442 C 659.915 985.367 646.89 992.656 647.277 992.475 C 636.218 997.653 612.333 1005.37 610.73 1019.51 C 610.315 1027.42 610.519 1030.77 616.214 1037.03 C 626.374 1048.2 646.2 1055.53 660.054 1060.74 C 690.683 1072.38 724.807 1078.59 756.982 1084.05 C 763.535 1085.16 795.331 1088.51 798.63 1089.89 C 803.909 1094.07 823.934 1092.09 832.385 1095.89 C 831.592 1097.24 830.832 1098.6 830.08 1099.96 C 830.644 1101.51 830.329 1101.6 831.285 1102.22 C 825.171 1101.77 802.781 1099.73 798.814 1100.72 C 795.37 1100.94 779.325 1098.7 775.071 1098.13 C 736.967 1093.25 699.295 1085.45 662.392 1074.78 C 640.163 1068.77 587.618 1049.12 593.769 1019.32 z"/>
<path transform="translate(0,0)" fill="rgb(25,217,251)" d="M 1441.69 1023.33 L 1498.03 1023.85 C 1498.33 1041.75 1498.83 1060.64 1498.54 1078.58 C 1498.49 1081.53 1497.55 1082.08 1495.79 1083.4 C 1482.22 1084.31 1451.77 1084.13 1438.11 1083.42 C 1437.6 1067.46 1437.79 1051.19 1437.66 1035.21 C 1437.62 1030.17 1437.25 1026.09 1441.69 1023.33 z"/>
<path transform="translate(0,0)" fill="rgb(25,217,251)" d="M 1640.1 1041.82 C 1659.98 1041.13 1679.88 1041.04 1699.77 1041.56 C 1699.97 1049.99 1701.78 1094.38 1698.41 1098.79 C 1695.76 1100.49 1694.35 1100.22 1691.2 1100.31 L 1668.83 1100.26 C 1663.08 1100.36 1645.34 1101.64 1641.67 1098.53 C 1638.96 1090.91 1639.49 1051.67 1640.1 1041.82 z"/>
<path transform="translate(0,0)" fill="rgb(25,217,251)" d="M 1664.27 1116.07 C 1673.06 1119.95 1670.54 1129.74 1670.33 1138.45 C 1670.41 1147.52 1672.11 1166.72 1666.79 1172.82 C 1661.86 1175.47 1632.78 1173.76 1623.63 1173.85 C 1618.4 1173.94 1617.01 1174.05 1611.98 1172.8 C 1612.03 1162.14 1609.85 1124.76 1614.09 1118.83 C 1620.33 1114.45 1653.2 1116.63 1664.27 1116.07 z"/>
<path transform="translate(0,0)" fill="rgb(25,217,251)" d="M 1614.95 1190.69 L 1619.56 1190.46 L 1640.52 1190.53 L 1647.67 1190.28 C 1648.36 1190.67 1650.08 1192.08 1650.78 1192.63 C 1653.75 1199.32 1652.1 1235.27 1652.16 1245.84 C 1635.15 1246.63 1614.14 1246.11 1596.83 1246.16 C 1596.47 1235.9 1594.79 1200.24 1597.39 1192.28 C 1601.4 1189.21 1609.77 1190.41 1614.95 1190.69 z"/>
<path transform="translate(0,0)" fill="rgb(25,217,251)" d="M 1526.92 1118.31 C 1541.18 1117.12 1561.68 1118.12 1576.8 1118.08 C 1577.63 1126.71 1578.38 1162.27 1576.45 1170.02 C 1558.63 1169.33 1543.37 1169.41 1525.48 1169.77 C 1525.57 1161.19 1524.43 1123.19 1526.92 1118.31 z"/>
<path transform="translate(0,0)" fill="rgb(25,217,251)" d="M 1697.27 1160.1 C 1712.45 1159.46 1730.74 1159.86 1746.08 1159.78 C 1746.44 1175.47 1746.41 1193.47 1746.15 1209.11 L 1697.25 1208.9 C 1696.51 1193.87 1696.97 1175.23 1697.27 1160.1 z"/>
<path transform="translate(0,0)" fill="rgb(25,217,251)" d="M 1700.34 1240.46 C 1710.58 1240.63 1720.82 1240.7 1731.06 1240.67 C 1731.25 1257.01 1731.25 1273.36 1731.08 1289.71 L 1714.81 1289.57 C 1703.7 1289.68 1693.9 1289.86 1682.79 1289.06 C 1682.09 1273.27 1682.57 1256.37 1682.76 1240.48 C 1688.66 1240.73 1694.44 1240.56 1700.34 1240.46 z"/>
<path transform="translate(0,0)" fill="rgb(25,217,251)" d="M 1612.99 967.079 C 1628.64 966.798 1644.3 966.729 1659.96 966.87 C 1660.1 973.902 1661.6 1010.19 1658.7 1013.79 C 1644.51 1014.08 1626.97 1014.11 1612.9 1013.37 C 1612.14 1004.43 1612 975.472 1612.99 967.079 z"/>
<path transform="translate(0,0)" fill="rgb(25,217,251)" d="M 1476.53 957.406 C 1489.75 958.661 1506.45 962.043 1520.35 963.885 C 1520.51 976.883 1520.43 989.884 1520.1 1002.88 C 1505.78 1002.36 1491.26 1002.59 1476.91 1002.67 C 1475.84 988.217 1476.34 971.969 1476.53 957.406 z"/>
<path transform="translate(0,0)" fill="rgb(25,217,251)" d="M 1401.24 954.238 C 1414.22 954.113 1427.2 954.095 1440.18 954.182 C 1440.38 968.103 1440.4 982.026 1440.24 995.947 L 1401.57 995.912 C 1401.06 982.591 1401.3 967.684 1401.24 954.238 z"/>
<path transform="translate(0,0)" fill="rgb(25,217,251)" d="M 1473.58 1107.47 C 1484.25 1107.3 1493.06 1107.35 1503.77 1107.81 C 1503.94 1114.6 1504.88 1136.09 1503.05 1141.11 L 1501.09 1141.77 L 1470.03 1141.96 C 1469.86 1134.78 1468.87 1113.66 1470.87 1108.24 L 1473.58 1107.47 z"/>
<path transform="translate(0,0)" fill="rgb(25,217,251)" d="M 1538.94 1191.18 C 1549.91 1191.05 1560.88 1191.08 1571.85 1191.27 C 1571.92 1202.56 1571.85 1213.86 1571.63 1225.16 L 1538.79 1225.23 C 1538.65 1213.88 1538.7 1202.53 1538.94 1191.18 z"/>
<path transform="translate(0,0)" fill="rgb(25,217,251)" d="M 1755.1 1082.62 L 1755.87 1082.72 C 1758.41 1085.73 1757.36 1110.4 1757.31 1115.88 C 1747.23 1115.72 1737.14 1115.7 1727.05 1115.8 L 1726.44 1115.61 C 1723.95 1112.18 1724.99 1088.8 1725.04 1083.04 C 1734.88 1082.62 1745.24 1082.61 1755.1 1082.62 z"/>
<path transform="translate(0,0)" fill="rgb(25,217,251)" d="M 1766.18 1202.19 C 1776.82 1202.22 1787.45 1202.11 1798.09 1201.88 L 1798.12 1234.82 L 1766.15 1234.72 C 1765.74 1223.96 1766.03 1212.98 1766.18 1202.19 z"/>
<path transform="translate(0,0)" fill="rgb(25,217,251)" d="M 1750.28 1289.23 C 1760.47 1290.15 1771.45 1289.84 1781.74 1289.79 L 1781.9 1322.23 C 1771.96 1321.77 1760.07 1322.09 1749.99 1322.1 C 1749.69 1311.47 1749.35 1299.75 1750.28 1289.23 z"/>
<path transform="translate(0,0)" fill="rgb(25,217,251)" d="M 1554.95 976.316 C 1565.69 976.489 1576.22 976.74 1586.97 976.366 C 1587.51 987.501 1587.16 996.562 1586.75 1007.68 C 1577.51 1008.12 1564.79 1007.71 1555.28 1007.67 C 1554.88 997.708 1555.03 986.387 1554.95 976.316 z"/>
<path transform="translate(0,0)" fill="rgb(0,27,82)" fill-opacity="0.0117647" d="M 1668.83 1100.26 L 1691.2 1100.31 C 1682.55 1103.81 1684.98 1107.27 1679.57 1114.49 C 1677.47 1117.29 1674.51 1120.12 1671.97 1122.53 C 1672.26 1127.95 1673.51 1134.39 1670.33 1138.45 C 1670.54 1129.74 1673.06 1119.95 1664.27 1116.07 L 1665.49 1114.33 C 1662.79 1114.35 1663.56 1114.76 1661.51 1113.6 C 1663.14 1110.51 1667.85 1102.9 1668.83 1100.26 z"/>
<path transform="translate(0,0)" fill="rgb(0,27,82)" fill-opacity="0.0784314" d="M 1611.98 1172.8 C 1617.01 1174.05 1618.4 1173.94 1623.63 1173.85 L 1621.66 1175.61 L 1621.88 1177.24 C 1622.53 1182.02 1623.18 1184.09 1621.75 1188.6 L 1619.56 1190.46 L 1614.95 1190.69 C 1610.66 1184.17 1611.69 1180.42 1611.98 1172.8 z"/>
<path transform="translate(0,0)" fill="rgb(0,27,82)" fill-opacity="0.0823529" d="M 1640.52 1190.53 C 1639.5 1186.15 1638.43 1179.02 1643.78 1177.22 C 1648.53 1180.76 1647.56 1184.71 1647.67 1190.28 L 1640.52 1190.53 z"/>
</svg>